<svg id="kinnu-master-rigsheet-svg" width="1000" height="880" viewBox="0 0 1000 880" fill="none" xmlns="http://www.w3.org/2000/svg"><rect width="1000" height="880" fill="#FFFFFF"/><rect x="20" y="20" width="960" height="840" fill="none" stroke="#E2E8F0" stroke-width="2"/><line x1="20" y1="210" x2="980" y2="210" stroke="#F1F5F9" stroke-width="2"/><line x1="20" y1="400" x2="980" y2="400" stroke="#F1F5F9" stroke-width="2"/><line x1="20" y1="620" x2="980" y2="620" stroke="#F1F5F9" stroke-width="2"/><text x="40" y="60" font-family="sans-serif" font-size="24" font-weight="900" fill="#0F172A">KINNU CHARACTER RIG SHEET</text><text x="40" y="80" font-family="sans-serif" font-size="11" font-weight="600" fill="#FF4D88">MODEL SHEET REF: KINNU_RIG_V1.1 • PROJECT: SHIKSHA-CAST</text><line x1="40" y1="95" x2="960" y2="95" stroke="#E2E8F0" stroke-width="3"/><g transform="translate(0, 100)"><text x="40" y="25" font-family="sans-serif" font-size="11" font-weight="700" fill="#94A3B8">ROW 1: BASE BODY PARTS &amp; UPPER LIMBS</text><g transform="translate(40, 30)"><svg width="120" height="120" viewBox="0 0 120 120" fill="none" xmlns="http://www.w3.org/2000/svg"><path d="M 40,30 C 40,30 35,20 60,20 C 85,20 80,30 80,30 L 95,85 C 95,85 60,92 25,85 Z" fill="#FFEB3B" stroke="#1A1A1A" stroke-width="3.5" stroke-linejoin="round"/><path d="M 60,20 C 72,20 80,26 80,30 L 95,85 C 80,87 70,86 60,85 Z" fill="#FBC02D" opacity="0.6"/><path d="M 52,21 C 52,21 60,26 68,21 C 68,21 68,14 52,14 Z" fill="#FFE4D1" stroke="#1A1A1A" stroke-width="3" stroke-linejoin="round"/><path d="M 32,60 C 50,65 70,65 88,60 L 89,66 C 71,71 49,71 31,66 Z" fill="#FF4D88" stroke="#1A1A1A" stroke-width="3" stroke-linejoin="round"/><g transform="translate(60, 63)"><circle cx="0" cy="-6" r="5" fill="#FFFFFF" stroke="#1A1A1A" stroke-width="1.5"/><circle cx="-6" cy="-2" r="5" fill="#FFFFFF" stroke="#1A1A1A" stroke-width="1.5"/><circle cx="6" cy="-2" r="5" fill="#FFFFFF" stroke="#1A1A1A" stroke-width="1.5"/><circle cx="-4" cy="4" r="5" fill="#FFFFFF" stroke="#1A1A1A" stroke-width="1.5"/><circle cx="4" cy="4" r="5" fill="#FFFFFF" stroke="#1A1A1A" stroke-width="1.5"/><circle cx="0" cy="0" r="4.5" fill="#FF4D88" stroke="#1A1A1A" stroke-width="1.5"/></g></svg><text x="60" y="115" font-family="monospace" font-size="10" font-weight="700" text-anchor="middle" fill="#64748B">torso</text></g><g transform="translate(200, 30)"><svg width="120" height="120" viewBox="0 0 120 120" fill="none" xmlns="http://www.w3.org/2000/svg"><g transform="translate(60, 65) scale(1.3) translate(-60, -65)"><path d="M 50,85 L 50,98 C 50,98 60,105 70,98 L 70,85 Z" fill="#FFE4D1" stroke="#1A1A1A" stroke-width="3.5" stroke-linejoin="round"/><path d="M 60,85 C 65,85 70,90 70,98 L 70,85 Z" fill="#F1C0AC" opacity="0.8"/><circle cx="34" cy="65" r="8" fill="#FFE4D1" stroke="#1A1A1A" stroke-width="3.5"/><path d="M 33,63 C 31,65 33,68 35,67" stroke="#F1C0AC" stroke-width="2" stroke-linecap="round"/><circle cx="86" cy="65" r="8" fill="#FFE4D1" stroke="#1A1A1A" stroke-width="3.5"/><path d="M 87,63 C 89,65 87,68 85,67" stroke="#F1C0AC" stroke-width="2" stroke-linecap="round"/><circle cx="60" cy="60" r="28" fill="#FFE4D1" stroke="#1A1A1A" stroke-width="3.5"/><circle cx="43" cy="68" r="5" fill="#FF4D88" opacity="0.3"/><circle cx="77" cy="68" r="5" fill="#FF4D88" opacity="0.3"/><path d="M 80,40 C 96,30 110,42 105,60 C 101,74 89,78 85,67 C 82,59 85,50 80,45 Z" fill="#2B2B32" stroke="#1A1A1A" stroke-width="3.5" stroke-linejoin="round"/><path d="M 89,45 C 97,44 102,52 100,60" stroke="#4A4A54" stroke-width="2.5" stroke-linecap="round" opacity="0.8"/><path d="M 31,52 C 28,35 40,25 60,25 C 80,25 92,35 89,52 C 86,45 81,40 76,43 C 71,45 65,35 60,40 C 55,35 49,45 44,43 C 39,40 34,45 31,52 Z" fill="#2B2B32" stroke="#1A1A1A" stroke-width="3.5" stroke-linejoin="round"/><path d="M 40,31 C 50,28 70,28 80,31" stroke="#4A4A54" stroke-width="3" stroke-linecap="round"/><g transform="translate(84, 36) rotate(-20)"><path d="M -3,0 C -11,-11 -23,-7 -16,3 C -12,9 -6,6 -3,0 Z" fill="#FF4D88" stroke="#1A1A1A" stroke-width="3" stroke-linejoin="round"/><path d="M 3,0 C 11,-11 23,-7 16,3 C 12,9 6,6 3,0 Z" fill="#FF4D88" stroke="#1A1A1A" stroke-width="3" stroke-linejoin="round"/><path d="M -14,-4 C -12,-1 -12,1 -13,3" stroke="#D81B60" stroke-width="2" stroke-linecap="round"/><path d="M 14,-4 C 12,-1 12,1 13,3" stroke="#D81B60" stroke-width="2" stroke-linecap="round"/><circle cx="0" cy="0" r="4.5" fill="#D81B60" stroke="#1A1A1A" stroke-width="2.5"/></g></g></svg><text x="60" y="115" font-family="monospace" font-size="10" font-weight="700" text-anchor="middle" fill="#64748B">head</text></g><g transform="translate(360, 30)"><svg width="120" height="120" viewBox="0 0 120 120" fill="none" xmlns="http://www.w3.org/2000/svg"><rect x="46" y="25" width="28" height="58" rx="14" fill="#FFE4D1" stroke="#1A1A1A" stroke-width="3.5"/><path d="M 60,25 L 60,83" stroke="#F1C0AC" stroke-width="6" stroke-linecap="round" opacity="0.5"/></svg><text x="60" y="115" font-family="monospace" font-size="10" font-weight="700" text-anchor="middle" fill="#64748B">upper_arm_left</text></g><g transform="translate(520, 30)"><svg width="120" height="120" viewBox="0 0 120 120" fill="none" xmlns="http://www.w3.org/2000/svg"><rect x="46" y="20" width="28" height="52" rx="14" fill="#FFE4D1" stroke="#1A1A1A" stroke-width="3.5"/><circle cx="60" cy="76" r="16" fill="#FFE4D1" stroke="#1A1A1A" stroke-width="3.5"/><path d="M 46,74 C 36,72 34,84 45,84 C 50,84 50,78 50,76" stroke="#1A1A1A" stroke-width="3.5" fill="#FFE4D1" stroke-linecap="round" stroke-linejoin="round"/></svg><text x="60" y="115" font-family="monospace" font-size="10" font-weight="700" text-anchor="middle" fill="#64748B">forearm_left</text></g><g transform="translate(680, 30)"><svg width="120" height="120" viewBox="0 0 120 120" fill="none" xmlns="http://www.w3.org/2000/svg"><rect x="46" y="25" width="28" height="58" rx="14" fill="#FFE4D1" stroke="#1A1A1A" stroke-width="3.5"/><path d="M 60,25 L 60,83" stroke="#F1C0AC" stroke-width="6" stroke-linecap="round" opacity="0.5"/></svg><text x="60" y="115" font-family="monospace" font-size="10" font-weight="700" text-anchor="middle" fill="#64748B">upper_arm_right</text></g><g transform="translate(840, 30)"><svg width="120" height="120" viewBox="0 0 120 120" fill="none" xmlns="http://www.w3.org/2000/svg"><rect x="46" y="20" width="28" height="52" rx="14" fill="#FFE4D1" stroke="#1A1A1A" stroke-width="3.5"/><circle cx="60" cy="76" r="16" fill="#FFE4D1" stroke="#1A1A1A" stroke-width="3.5"/><path d="M 74,74 C 84,72 86,84 75,84 C 70,84 70,78 70,76" stroke="#1A1A1A" stroke-width="3.5" fill="#FFE4D1" stroke-linecap="round" stroke-linejoin="round"/></svg><text x="60" y="115" font-family="monospace" font-size="10" font-weight="700" text-anchor="middle" fill="#64748B">forearm_right</text></g></g><g transform="translate(0, 290)"><text x="40" y="25" font-family="sans-serif" font-size="11" font-weight="700" fill="#94A3B8">ROW 2: FACIAL ACCESSORIES — EYEBROWS &amp; EYES</text><g transform="translate(40, 35)"><svg width="110" height="110" viewBox="0 0 120 120" fill="none" xmlns="http://www.w3.org/2000/svg"><g stroke="#1A1A1A" stroke-width="4" stroke-linecap="round"><path d="M 35,58 C 42,56 48,56 52,58"/><path d="M 68,58 C 72,56 78,56 85,58"/></g></svg><text x="55" y="100" font-family="monospace" font-size="9" font-weight="700" text-anchor="middle" fill="#64748B">brow_neutral</text></g><g transform="translate(170, 35)"><svg width="110" height="110" viewBox="0 0 120 120" fill="none" xmlns="http://www.w3.org/2000/svg"><g stroke="#1A1A1A" stroke-width="4" stroke-linecap="round"><path d="M 35,56 C 42,48 48,48 52,56"/><path d="M 68,56 C 72,48 78,48 85,56"/></g></svg><text x="55" y="100" font-family="monospace" font-size="9" font-weight="700" text-anchor="middle" fill="#64748B">brow_happy</text></g><g transform="translate(300, 35)"><svg width="110" height="110" viewBox="0 0 120 120" fill="none" xmlns="http://www.w3.org/2000/svg"><g stroke="#1A1A1A" stroke-width="4" stroke-linecap="round"><path d="M 35,60 C 42,56 48,50 52,48"/><path d="M 68,48 C 72,50 78,56 85,60"/></g></svg><text x="55" y="100" font-family="monospace" font-size="9" font-weight="700" text-anchor="middle" fill="#64748B">brow_sad</text></g><g transform="translate(430, 35)"><svg width="110" height="110" viewBox="0 0 120 120" fill="none" xmlns="http://www.w3.org/2000/svg"><g stroke="#1A1A1A" stroke-width="4" stroke-linecap="round"><path d="M 35,46 C 42,38 48,38 52,46"/><path d="M 68,46 C 72,38 78,38 85,46"/></g></svg><text x="55" y="100" font-family="monospace" font-size="9" font-weight="700" text-anchor="middle" fill="#64748B">brow_surprised</text></g><g transform="translate(560, 35)"><svg width="110" height="110" viewBox="0 0 120 120" fill="none" xmlns="http://www.w3.org/2000/svg"><g><circle cx="42" cy="60" r="10" fill="#FFFFFF" stroke="#1A1A1A" stroke-width="3"/><circle cx="42" cy="60" r="6.5" fill="#1A1A1A"/><circle cx="39" cy="57" r="2.5" fill="#FFFFFF"/><path d="M 32,54 C 36,51 44,51 48,53" stroke="#1A1A1A" stroke-width="3.5" stroke-linecap="round"/><circle cx="78" cy="60" r="10" fill="#FFFFFF" stroke="#1A1A1A" stroke-width="3"/><circle cx="78" cy="60" r="6.5" fill="#1A1A1A"/><circle cx="75" cy="57" r="2.5" fill="#FFFFFF"/><path d="M 72,53 C 76,51 84,51 88,54" stroke="#1A1A1A" stroke-width="3.5" stroke-linecap="round"/></g></svg><text x="55" y="100" font-family="monospace" font-size="9" font-weight="700" text-anchor="middle" fill="#64748B">eye_open</text></g><g transform="translate(690, 35)"><svg width="110" height="110" viewBox="0 0 120 120" fill="none" xmlns="http://www.w3.org/2000/svg"><g stroke="#1A1A1A" stroke-width="4.5" stroke-linecap="round" fill="none"><path d="M 32,60 C 37,65 43,65 48,60"/><path d="M 72,60 C 77,65 83,65 88,60"/></g></svg><text x="55" y="100" font-family="monospace" font-size="9" font-weight="700" text-anchor="middle" fill="#64748B">eye_closed</text></g><g transform="translate(820, 35)"><svg width="110" height="110" viewBox="0 0 120 120" fill="none" xmlns="http://www.w3.org/2000/svg"><g stroke="#1A1A1A" stroke-width="4.5" stroke-linecap="round" fill="none"><path d="M 32,62 C 37,55 43,55 48,62"/><path d="M 72,62 C 77,55 83,55 88,62"/></g></svg><text x="55" y="100" font-family="monospace" font-size="9" font-weight="700" text-anchor="middle" fill="#64748B">eye_happy</text></g></g><g transform="translate(0, 480)"><text x="40" y="25" font-family="sans-serif" font-size="11" font-weight="700" fill="#94A3B8">ROW 3: LIP-SYNC MOUTH PHONEMES</text><g transform="translate(40, 30)"><svg width="85" height="85" viewBox="0 0 120 120" fill="none" xmlns="http://www.w3.org/2000/svg"><path d="M 45,60 C 52,58 68,58 75,60" stroke="#1A1A1A" stroke-width="4" stroke-linecap="round"/></svg><text x="42" y="90" font-family="monospace" font-size="11" font-weight="900" text-anchor="middle" fill="#0F172A">A</text></g><g transform="translate(142, 30)"><svg width="85" height="85" viewBox="0 0 120 120" fill="none" xmlns="http://www.w3.org/2000/svg"><g><path d="M 45,58 C 45,58 50,68 60,68 C 70,68 75,58 75,58 Z" fill="#D32F2F" stroke="#1A1A1A" stroke-width="3.5" stroke-linejoin="round"/><path d="M 47,59 C 52,62 68,62 73,59" fill="#FFFFFF" stroke="#1A1A1A" stroke-width="2.5" stroke-linecap="round"/></g></svg><text x="42" y="90" font-family="monospace" font-size="11" font-weight="900" text-anchor="middle" fill="#0F172A">B</text></g><g transform="translate(244, 30)"><svg width="85" height="85" viewBox="0 0 120 120" fill="none" xmlns="http://www.w3.org/2000/svg"><g><path d="M 43,56 C 43,56 46,74 60,74 C 74,74 77,56 77,56 Z" fill="#D32F2F" stroke="#1A1A1A" stroke-width="3.5" stroke-linejoin="round"/><path d="M 45,57 L 75,57 L 73,62 L 47,62 Z" fill="#FFFFFF" stroke="#1A1A1A" stroke-width="2"/><path d="M 50,68 C 55,64 65,64 70,68 C 65,74 55,74 50,68 Z" fill="#FF8A80"/></g></svg><text x="42" y="90" font-family="monospace" font-size="11" font-weight="900" text-anchor="middle" fill="#0F172A">C</text></g><g transform="translate(346, 30)"><svg width="85" height="85" viewBox="0 0 120 120" fill="none" xmlns="http://www.w3.org/2000/svg"><g><path d="M 40,54 C 40,54 44,80 60,80 C 76,80 80,54 80,54 Z" fill="#D32F2F" stroke="#1A1A1A" stroke-width="3.5" stroke-linejoin="round"/><path d="M 42,55 L 78,55 L 75,61 L 45,61 Z" fill="#FFFFFF" stroke="#1A1A1A" stroke-width="2"/><path d="M 48,70 C 53,66 67,66 72,70 C 67,79 53,79 48,70 Z" fill="#FF8A80" stroke="#1A1A1A" stroke-width="1.5"/></g></svg><text x="42" y="90" font-family="monospace" font-size="11" font-weight="900" text-anchor="middle" fill="#0F172A">D</text></g><g transform="translate(448, 30)"><svg width="85" height="85" viewBox="0 0 120 120" fill="none" xmlns="http://www.w3.org/2000/svg"><g><ellipse cx="60" cy="62" rx="12" ry="16" fill="#D32F2F" stroke="#1A1A1A" stroke-width="3.5"/><ellipse cx="60" cy="58" rx="8" ry="10" fill="#801C1C" opacity="0.5"/></g></svg><text x="42" y="90" font-family="monospace" font-size="11" font-weight="900" text-anchor="middle" fill="#0F172A">E</text></g><g transform="translate(550, 30)"><svg width="85" height="85" viewBox="0 0 120 120" fill="none" xmlns="http://www.w3.org/2000/svg"><g><circle cx="60" cy="62" r="8" fill="#D32F2F" stroke="#1A1A1A" stroke-width="4"/><circle cx="60" cy="62" r="4" fill="#801C1C" opacity="0.6"/></g></svg><text x="42" y="90" font-family="monospace" font-size="11" font-weight="900" text-anchor="middle" fill="#0F172A">F</text></g><g transform="translate(652, 30)"><svg width="85" height="85" viewBox="0 0 120 120" fill="none" xmlns="http://www.w3.org/2000/svg"><g><path d="M 44,56 L 76,56 C 76,56 74,68 60,68 C 46,68 44,56 44,56 Z" fill="#D32F2F" stroke="#1A1A1A" stroke-width="3.5" stroke-linejoin="round"/><path d="M 44,56 L 76,56 L 70,64 L 50,64 Z" fill="#FFFFFF" stroke="#1A1A1A" stroke-width="2.5" stroke-linejoin="round"/></g></svg><text x="42" y="90" font-family="monospace" font-size="11" font-weight="900" text-anchor="middle" fill="#0F172A">G</text></g><g transform="translate(754, 30)"><svg width="85" height="85" viewBox="0 0 120 120" fill="none" xmlns="http://www.w3.org/2000/svg"><g><path d="M 43,56 C 43,56 46,74 60,74 C 74,74 77,56 77,56 Z" fill="#D32F2F" stroke="#1A1A1A" stroke-width="3.5" stroke-linejoin="round"/><path d="M 52,68 C 55,58 65,58 68,68 C 65,73 55,73 52,68 Z" fill="#FF8A80" stroke="#1A1A1A" stroke-width="2"/><path d="M 44,56 L 52,56 L 52,60 L 45,59 Z" fill="#FFFFFF"/><path d="M 76,56 L 68,56 L 68,60 L 75,59 Z" fill="#FFFFFF"/></g></svg><text x="42" y="90" font-family="monospace" font-size="11" font-weight="900" text-anchor="middle" fill="#0F172A">H</text></g><g transform="translate(856, 30)"><svg width="85" height="85" viewBox="0 0 120 120" fill="none" xmlns="http://www.w3.org/2000/svg"><g><path d="M 46,60 Q 60,64 74,60" stroke="#1A1A1A" stroke-width="4" stroke-linecap="round" fill="none"/><path d="M 45,58 Q 44,61 46,62" stroke="#1A1A1A" stroke-width="3" stroke-linecap="round"/><path d="M 75,58 Q 76,61 74,62" stroke="#1A1A1A" stroke-width="3" stroke-linecap="round"/></g></svg><text x="42" y="90" font-family="monospace" font-size="11" font-weight="900" text-anchor="middle" fill="#0F172A">X</text></g></g><g transform="translate(0, 660)"><text x="40" y="25" font-family="sans-serif" font-size="11" font-weight="700" fill="#94A3B8">ROW 4: LOWER LIMBS &amp; FOOTWEAR</text><g transform="translate(80, 30)"><svg width="120" height="120" viewBox="0 0 120 120" fill="none" xmlns="http://www.w3.org/2000/svg"><rect x="47.5" y="25" width="25" height="65" rx="12.5" fill="#FFE4D1" stroke="#1A1A1A" stroke-width="3.5"/><path d="M 60,25 L 60,90" stroke="#F1C0AC" stroke-width="4.5" stroke-linecap="round" opacity="0.5"/></svg><text x="60" y="115" font-family="monospace" font-size="10" font-weight="700" text-anchor="middle" fill="#64748B">thigh_left</text></g><g transform="translate(300, 30)"><svg width="120" height="120" viewBox="0 0 120 120" fill="none" xmlns="http://www.w3.org/2000/svg"><rect x="44" y="20" width="32" height="50" rx="16" fill="#FFE4D1" stroke="#1A1A1A" stroke-width="3.5"/><rect x="44" y="60" width="32" height="8" fill="#FFFFFF" stroke="#1A1A1A" stroke-width="3"/><path d="M 32,92 C 32,82 50,76 72,76 C 78,76 78,88 72,92 Z" fill="#1E88E5" stroke="#1A1A1A" stroke-width="3.5" stroke-linejoin="round"/><path d="M 32,92 C 45,86 65,86 72,92 Z" fill="#1565C0" opacity="0.5"/><path d="M 30,92 L 74,92 C 74,92 72,97 60,97 C 48,97 30,95 30,92 Z" fill="#FFFFFF" stroke="#1A1A1A" stroke-width="3.5" stroke-linejoin="round"/><path d="M 30,92 C 30,86 40,85 41,92 Z" fill="#FFFFFF" stroke="#1A1A1A" stroke-width="3"/></svg><text x="60" y="115" font-family="monospace" font-size="10" font-weight="700" text-anchor="middle" fill="#64748B">shin_left</text></g><g transform="translate(520, 30)"><svg width="120" height="120" viewBox="0 0 120 120" fill="none" xmlns="http://www.w3.org/2000/svg"><rect x="47.5" y="25" width="25" height="65" rx="12.5" fill="#FFE4D1" stroke="#1A1A1A" stroke-width="3.5"/><path d="M 60,25 L 60,90" stroke="#F1C0AC" stroke-width="4.5" stroke-linecap="round" opacity="0.5"/></svg><text x="60" y="115" font-family="monospace" font-size="10" font-weight="700" text-anchor="middle" fill="#64748B">thigh_right</text></g><g transform="translate(740, 30)"><svg width="120" height="120" viewBox="0 0 120 120" fill="none" xmlns="http://www.w3.org/2000/svg"><rect x="44" y="20" width="32" height="50" rx="16" fill="#FFE4D1" stroke="#1A1A1A" stroke-width="3.5"/><rect x="44" y="60" width="32" height="8" fill="#FFFFFF" stroke="#1A1A1A" stroke-width="3"/><path d="M 88,92 C 88,82 70,76 48,76 C 42,76 42,88 48,92 Z" fill="#1E88E5" stroke="#1A1A1A" stroke-width="3.5" stroke-linejoin="round"/><path d="M 88,92 C 75,86 55,86 48,92 Z" fill="#1565C0" opacity="0.5"/><path d="M 90,92 L 46,92 C 46,92 48,97 60,97 C 72,97 90,95 90,92 Z" fill="#FFFFFF" stroke="#1A1A1A" stroke-width="3.5" stroke-linejoin="round"/><path d="M 90,92 C 90,86 80,85 79,92 Z" fill="#FFFFFF" stroke="#1A1A1A" stroke-width="3"/></svg><text x="60" y="115" font-family="monospace" font-size="10" font-weight="700" text-anchor="middle" fill="#64748B">shin_right</text></g></g><text x="40" y="850" font-family="sans-serif" font-size="9" font-weight="600" fill="#94A3B8">© SHIKSHA-CAST DIGITAL ANIMATION TEAM • ALL RIGS ARE VECTOR SHADED WITH CLEAN OUTLINES</text></svg>